Coordinates
version=1
nRows=6
nColumns=36
inDegrees=yes

Units are S.I. units (second, meters, Newtons, ...)
If the header above contains a line with 'inDegrees', this indicates whether rotational values are in degrees (yes) or radians (no).

endheader
time	pelvis_tilt	pelvis_list	pelvis_rotation	pelvis_tx	pelvis_ty	pelvis_tz	hip_flexion_r	hip_adduction_r	hip_rotation_r	knee_angle_r	knee_angle_r_beta	ankle_angle_r	subtalar_angle_r	mtp_angle_r	hip_flexion_l	hip_adduction_l	hip_rotation_l	knee_angle_l	knee_angle_l_beta	ankle_angle_l	subtalar_angle_l	mtp_angle_l	lumbar_extension	lumbar_bending	lumbar_rotation	arm_flex_r	arm_add_r	arm_rot_r	elbow_flex_r	pro_sup_r	arm_flex_l	arm_add_l	arm_rot_l	elbow_flex_l	pro_sup_l
      2.46666670	      4.14546194	     -4.88777489	    -23.79030178	      1.06549096	      0.93154635	      0.07410622	      5.72582317	     -7.71321234	    -11.11718422	     23.63007147	      0.41242255	     24.21574209	     11.90709553	     -7.49999987	      7.71273674	    -12.56157907	     -2.11603837	     24.37950908	      0.42550270	     26.67237862	     10.50558969	     -7.49999987	    -43.65026469	      6.79771445	      5.36165119	     67.67878200	     -4.46879491	     60.67238193	    108.18953122	     96.51730415	     63.57134004	      1.12108216	     64.35430097	    122.77792842	    106.00234103
      2.48333330	      3.74868210	     -4.75808302	    -23.91995291	      1.06539478	      0.92891533	      0.07367958	      6.95777614	     -7.88606241	    -11.23715995	     24.94621186	      0.43539353	     25.05387390	     12.04230588	     -7.49999987	      8.96767571	    -12.71470793	     -2.20996959	     25.74055395	      0.44925742	     27.20426449	     10.54889939	     -7.49999987	    -44.22545020	      6.71001538	      5.80842122	     68.77630537	     -4.70403481	     60.95924400	    108.70964094	     97.46176833	     64.58922360	      0.98213849	     64.60565391	    122.22651365	    107.05187721
      2.50000000	      3.28630463	     -4.64611598	    -23.79046187	      1.05845174	      0.92345411	      0.07141530	      8.29257588	     -8.05158643	    -11.58620472	     26.29711524	      0.45897124	     25.82986265	     12.29295415	     -7.49999987	     10.71367830	    -12.97638256	     -2.38987141	     27.60401905	      0.48178102	     27.92722522	     10.99419826	     -7.49999987	    -45.07714412	      6.88743721	      6.09212647	     70.54486926	     -5.00065254	     61.79758690	    108.72473822	     97.37834782	     65.82734449	      0.66971283	     64.92924597	    121.69727526	    106.60010875
      2.51666670	      2.55667411	     -4.49118356	    -23.66864775	      1.05853475	      0.92054252	      0.07111959	      9.75960377	     -8.17928492	    -12.05204510	     27.49078662	      0.47980474	     26.51480664	     12.50929590	     -7.49999987	     12.60852401	    -13.28931158	     -2.47098579	     29.29374881	      0.51127237	     28.64308032	     11.27643120	     -7.49999987	    -45.62134420	      7.01942741	      6.65399689	     71.86468876	     -5.49303685	     61.85872588	    107.91183855	     96.88937736	     67.20285876	      0.45714864	     65.77917553	    121.67943175	    107.31274129
      2.53333330	      2.09329990	     -4.43088280	    -23.58459157	      1.05819783	      0.91802731	      0.07084225	     10.82780591	     -8.32514966	    -12.53115367	     28.54236079	      0.49815817	     27.05963946	     12.79747136	     -7.49999987	     13.92948063	    -13.56267309	     -2.62202724	     30.58452987	      0.53380075	     29.21391470	     11.55559172	     -7.49999987	    -46.10586758	      7.15321152	      6.73070892	     72.43646526	     -5.71356074	     62.28592817	    108.18973170	     97.75651806	     68.06942442	     -0.14388023	     66.05726105	    121.67286693	    106.77518584
      2.55000000	      1.79377124	     -4.45700740	    -23.50526743	      1.05791052	      0.91570645	      0.07044217	     11.54022957	     -8.42837615	    -13.08062029	     29.36002790	      0.51242916	     27.49861839	     13.11470348	     -7.49999987	     14.84576765	    -13.81518223	     -2.70777092	     31.58297135	      0.55122684	     29.72388628	     11.78621637	     -7.49999987	    -46.60537271	      7.26207989	      6.95634410	     72.85180378	     -6.02935881	     62.85720632	    108.96893669	     96.98916671	     68.29907925	      0.29228494	     66.68608607	    121.29510747	    107.57656143
